<svg xmlns="http://www.w3.org/2000/svg" viewBox="0 0 1024 1024" width="1024" height="1024">
  <defs>
    <linearGradient id="body" x1="0" y1="0" x2="0" y2="1">
      <stop offset="0" stop-color="#FFC01E"/><stop offset="1" stop-color="#F5AE00"/>
    </linearGradient>
  </defs>

  <!-- transparent background (Android adaptive foreground layer) -->

  <!-- ground shadow -->
  <ellipse cx="512" cy="672" rx="248" ry="30" fill="#000000" opacity="0.18"/>

  <!-- route line + location pin -->
  <line x1="300" y1="716" x2="596" y2="716" stroke="#FFFFFF" stroke-opacity="0.75" stroke-width="12" stroke-linecap="round" stroke-dasharray="2 30"/>
  <path d="M672 656c-30 0-54 24-54 54 0 38 54 82 54 82s54-44 54-82c0-30-24-54-54-54z" fill="#FFFFFF"/>
  <circle cx="672" cy="710" r="20" fill="#173A94"/>

  <!-- BUS -->
  <rect x="252" y="576" width="520" height="34" rx="12" fill="#111A2B"/>
  <rect x="588" y="470" width="184" height="132" rx="38" fill="url(#body)"/>
  <rect x="252" y="352" width="392" height="250" rx="54" fill="url(#body)"/>
  <rect x="286" y="364" width="322" height="16" rx="8" fill="#FFFFFF" opacity="0.28"/>
  <path d="M604 400h44v82h-24z" fill="#D7ECFF"/>
  <rect x="292" y="398" width="300" height="94" rx="22" fill="#CFE7FF"/>
  <rect x="366" y="398" width="16" height="94" fill="url(#body)"/>
  <rect x="442" y="398" width="16" height="94" fill="url(#body)"/>
  <rect x="518" y="398" width="16" height="94" fill="url(#body)"/>
  <rect x="256" y="520" width="18" height="42" rx="7" fill="#EF4444"/>
  <circle cx="756" cy="546" r="15" fill="#FFF3C4"/>
  <rect x="742" y="560" width="30" height="46" rx="9" fill="#111A2B"/>
  <circle cx="360" cy="604" r="68" fill="#1B2430"/><circle cx="360" cy="604" r="30" fill="#D7DEEA"/><circle cx="360" cy="604" r="11" fill="#1B2430"/>
  <circle cx="690" cy="604" r="68" fill="#1B2430"/><circle cx="690" cy="604" r="30" fill="#D7DEEA"/><circle cx="690" cy="604" r="11" fill="#1B2430"/>
</svg>
